<?xml version="1.0" encoding="UTF-8"?>

<svg version="1.2" baseProfile="tiny" width="210mm" height="210mm" viewBox="0 0 21000 21000" preserveAspectRatio="xMidYMid" fill-rule="evenodd" stroke-width="28.222" stroke-linejoin="round" xmlns="http://www.w3.org/2000/svg" xmlns:ooo="http://xml.openoffice.org/svg/export" xmlns:xlink="http://www.w3.org/1999/xlink" xml:space="preserve">
 <defs class="ClipPathGroup">
  <clipPath id="presentation_clip_path" clipPathUnits="userSpaceOnUse">
   <rect x="0" y="0" width="21000" height="21000"/>
  </clipPath>
 </defs>
 <defs class="TextShapeIndex">
  <g ooo:slide="id1" ooo:id-list="id3"/>
 </defs>
 <defs class="EmbeddedBulletChars">
  <g id="bullet-char-template(57356)" transform="scale(0.00048828125,-0.00048828125)">
   <path d="M 580,1141 L 1163,571 580,0 -4,571 580,1141 Z"/>
  </g>
  <g id="bullet-char-template(57354)" transform="scale(0.00048828125,-0.00048828125)">
   <path d="M 8,1128 L 1137,1128 1137,0 8,0 8,1128 Z"/>
  </g>
  <g id="bullet-char-template(10146)" transform="scale(0.00048828125,-0.00048828125)">
   <path d="M 174,0 L 602,739 174,1481 1456,739 174,0 Z M 1358,739 L 309,1346 659,739 1358,739 Z"/>
  </g>
  <g id="bullet-char-template(10132)" transform="scale(0.00048828125,-0.00048828125)">
   <path d="M 2015,739 L 1276,0 717,0 1260,543 174,543 174,936 1260,936 717,1481 1274,1481 2015,739 Z"/>
  </g>
  <g id="bullet-char-template(10007)" transform="scale(0.00048828125,-0.00048828125)">
   <path d="M 0,-2 C -7,14 -16,27 -25,37 L 356,567 C 262,823 215,952 215,954 215,979 228,992 255,992 264,992 276,990 289,987 310,991 331,999 354,1012 L 381,999 492,748 772,1049 836,1024 860,1049 C 881,1039 901,1025 922,1006 886,937 835,863 770,784 769,783 710,716 594,584 L 774,223 C 774,196 753,168 711,139 L 727,119 C 717,90 699,76 672,76 641,76 570,178 457,381 L 164,-76 C 142,-110 111,-127 72,-127 30,-127 9,-110 8,-76 1,-67 -2,-52 -2,-32 -2,-23 -1,-13 0,-2 Z"/>
  </g>
  <g id="bullet-char-template(10004)" transform="scale(0.00048828125,-0.00048828125)">
   <path d="M 285,-33 C 182,-33 111,30 74,156 52,228 41,333 41,471 41,549 55,616 82,672 116,743 169,778 240,778 293,778 328,747 346,684 L 369,508 C 377,444 397,411 428,410 L 1163,1116 C 1174,1127 1196,1133 1229,1133 1271,1133 1292,1118 1292,1087 L 1292,965 C 1292,929 1282,901 1262,881 L 442,47 C 390,-6 338,-33 285,-33 Z"/>
  </g>
  <g id="bullet-char-template(9679)" transform="scale(0.00048828125,-0.00048828125)">
   <path d="M 813,0 C 632,0 489,54 383,161 276,268 223,411 223,592 223,773 276,916 383,1023 489,1130 632,1184 813,1184 992,1184 1136,1130 1245,1023 1353,916 1407,772 1407,592 1407,412 1353,268 1245,161 1136,54 992,0 813,0 Z"/>
  </g>
  <g id="bullet-char-template(8226)" transform="scale(0.00048828125,-0.00048828125)">
   <path d="M 346,457 C 273,457 209,483 155,535 101,586 74,649 74,723 74,796 101,859 155,911 209,963 273,989 346,989 419,989 480,963 531,910 582,859 608,796 608,723 608,648 583,586 532,535 482,483 420,457 346,457 Z"/>
  </g>
  <g id="bullet-char-template(8211)" transform="scale(0.00048828125,-0.00048828125)">
   <path d="M -4,459 L 1135,459 1135,606 -4,606 -4,459 Z"/>
  </g>
 </defs>
 <defs class="TextEmbeddedBitmaps"/>
 <g>
  <g id="id2" class="Master_Slide">
   <g id="bg-id2" class="Background"/>
   <g id="bo-id2" class="BackgroundObjects"/>
  </g>
 </g>
 <g class="SlideGroup">
  <g>
   <g id="id1" class="Slide" clip-path="url(#presentation_clip_path)">
    <g class="Page">
     <g class="com.sun.star.drawing.ClosedBezierShape">
      <g id="id3">
       <path fill="rgb(52,52,52)" stroke="none" d="M 20935,9334 C 20902,9039 20557,8817 20260,8817 19297,8817 18444,8252 18085,7379 17720,6484 17955,5440 18673,4782 18898,4576 18926,4230 18736,3990 18244,3365 17684,2800 17073,2310 16834,2118 16482,2145 16275,2375 15649,3068 14525,3325 13656,2963 12752,2583 12182,1667 12238,683 12256,374 12030,106 11722,70 10938,-21 10147,-24 9360,64 9056,97 8830,359 8840,664 8874,1638 8297,2538 7402,2905 6544,3255 5428,3000 4803,2313 4596,2087 4251,2059 4010,2246 3381,2740 2809,3306 2312,3926 2118,4167 2146,4516 2374,4724 3105,5386 3341,6439 2962,7344 2599,8207 1703,8763 677,8763 344,8753 107,8976 70,9279 -22,10068 -23,10871 66,11667 99,11963 453,12183 754,12183 1669,12160 2547,12726 2915,13622 3282,14517 3046,15560 2328,16219 2103,16425 2075,16770 2264,17010 2752,17631 3312,18197 3925,18690 4166,18884 4516,18857 4724,18627 5352,17932 6477,17675 7342,18038 8248,18417 8818,19333 8763,20317 8744,20626 8971,20895 9278,20931 9679,20978 10083,21001 10488,21001 10872,21001 11256,20980 11640,20937 11945,20904 12170,20641 12160,20336 12125,19363 12703,18463 13597,18097 14461,17744 15573,18002 16197,18688 16405,18914 16748,18941 16990,18754 17618,18262 18189,17697 18689,17075 18882,16834 18855,16484 18626,16277 17895,15615 17658,14562 18038,13657 18394,12806 19257,12234 20186,12234 L 20315,12237 C 20617,12262 20894,12030 20930,11722 21023,10933 21024,10130 20935,9334 Z M 10517,14025 C 8585,14025 7014,12454 7014,10523 7014,8591 8585,7020 10517,7020 12448,7020 14019,8591 14019,10523 14019,12454 12448,14025 10517,14025 Z"/>
      </g>
     </g>
    </g>
   </g>
  </g>
 </g>
</svg>